<svg width="120" height="120" viewBox="0 0 120 120" fill="none" xmlns="http://www.w3.org/2000/svg">
<path d="M55 65.0018H30C27.2386 65.0018 25 62.7633 25 60.0018V60.0018C25 57.2404 27.2386 55.0018 30 55.0018H55V30.0018C55 27.2404 57.2386 25.0018 60 25.0018V25.0018C62.7614 25.0018 65 27.2404 65 30.0018V55.0018H90C92.7614 55.0018 95 57.2404 95 60.0018V60.0018C95 62.7633 92.7614 65.0018 90 65.0018H65V90.0018C65 92.7633 62.7614 95.0018 60 95.0018V95.0018C57.2386 95.0018 55 92.7633 55 90.0018V65.0018Z" fill="#30303A"/>
</svg>
