<svg width="120" height="120" viewBox="0 0 120 120" fill="none" xmlns="http://www.w3.org/2000/svg">
<path d="M56.8198 21.1109L21.4645 56.4663C20.4881 57.4426 20 58.7222 20 60.0018C20 61.2815 20.4881 62.5611 21.4645 63.5374L56.8198 98.8927C58.7724 100.845 61.9382 100.845 63.8909 98.8927C65.8435 96.9401 65.8435 93.7743 63.8909 91.8217L37.071 65.0018H95C97.7614 65.0018 100 62.7633 100 60.0018C100 57.2404 97.7614 55.0018 95 55.0018H37.071L63.8909 28.182C65.8435 26.2294 65.8435 23.0635 63.8909 21.1109C61.9382 19.1583 58.7724 19.1583 56.8198 21.1109Z" fill="#30303A"/>
</svg>
