<svg width="120" height="120" viewBox="0 0 120 120" fill="none" xmlns="http://www.w3.org/2000/svg">
<path fill-rule="evenodd" clip-rule="evenodd" d="M60 52.9308L33.4835 26.4143C32.6912 25.622 31.6992 25.1512 30.6696 25.0018L29.2264 25.0018C28.1967 25.1512 27.2047 25.622 26.4124 26.4143C25.6202 27.2065 25.1493 28.1985 25 29.2282L25 30.6714C25.1493 31.701 25.6202 32.6931 26.4124 33.4853L52.9289 60.0018L26.4124 86.5183C25.6202 87.3106 25.1493 88.3026 25 89.3323L25 90.7755C25.1493 91.8051 25.6202 92.7971 26.4124 93.5894C27.2047 94.3817 28.1967 94.8525 29.2264 95.0018H30.6696C31.6992 94.8525 32.6912 94.3817 33.4835 93.5894L60 67.0729L86.5165 93.5894C87.3088 94.3817 88.3008 94.8525 89.3304 95.0018H90.7736C91.8033 94.8525 92.7953 94.3817 93.5876 93.5894C94.3798 92.7971 94.8506 91.8052 95 90.7755V89.3322C94.8506 88.3026 94.3798 87.3106 93.5876 86.5183L67.0711 60.0018L93.5876 33.4853C94.3798 32.6931 94.8506 31.7011 95 30.6714V29.2282C94.8506 28.1985 94.3798 27.2065 93.5876 26.4143C92.7953 25.622 91.8033 25.1512 90.7737 25.0018L89.3304 25.0018C88.3008 25.1512 87.3088 25.622 86.5165 26.4143L60 52.9308Z" fill="#30303A"/>
</svg>
