<svg width="120" height="120" viewBox="0 0 120 120" fill="none" xmlns="http://www.w3.org/2000/svg">
<path fill-rule="evenodd" clip-rule="evenodd" d="M10 15.0018C7.23858 15.0018 5 17.2404 5 20.0018C5 22.7633 7.23858 25.0018 10 25.0018H22.5L31.2997 82.2796C32.0991 87.4827 35.5126 91.7177 40.0799 93.7314C40.0272 94.1475 40 94.5715 40 95.0018C40 100.525 44.4772 105.002 50 105.002C55.5228 105.002 60 100.525 60 95.0018H80C80 100.525 84.4772 105.002 90 105.002C95.5229 105.002 100 100.525 100 95.0018C100 89.479 95.5229 85.0018 90 85.0018H46.0594C43.5867 85.0018 41.4853 83.1944 41.1156 80.7494L40.7013 78.0096H84.2598C91.4518 78.0096 97.6317 72.905 98.9899 65.8424L103.917 40.2243C104.489 37.2459 102.3 34.4476 99.2712 34.2871L33.5626 30.8038L31.173 15.0018H10ZM35.0935 40.9273L39.1719 67.8963H84.3776C86.7938 67.8963 88.8643 66.1684 89.2968 63.7912L92.9 43.9862L35.0935 40.9273Z" fill="#30303A"/>
</svg>
