<svg width="120" height="120" viewBox="0 0 120 120" fill="none" xmlns="http://www.w3.org/2000/svg">
<path fill-rule="evenodd" clip-rule="evenodd" d="M36.8872 23.1268H18.75C15.9886 23.1268 13.75 25.3654 13.75 28.1268C13.75 30.8883 15.9886 33.1268 18.75 33.1268L25.3495 99.1219C25.8607 104.234 30.1624 108.127 35.2999 108.127H84.6484C89.8076 108.127 94.12 104.202 94.6042 99.0654L100.82 33.1268H101.25C104.011 33.1268 106.25 30.8883 106.25 28.1268C106.25 25.3654 104.011 23.1268 101.25 23.1268H83.125C83.125 23.1268 79.8936 8.12683 60 8.12683C40.1064 8.12683 36.8872 23.1268 36.8872 23.1268ZM90.7812 32.9706L84.4668 95.8765C84.3386 97.1541 83.2633 98.1268 81.9793 98.1268H38.1269C36.8444 98.1268 35.77 97.1565 35.6398 95.8807L29.2188 32.9706H90.7812ZM47.9492 23.1268H72.1289C72.1289 23.1268 69.8424 17.6385 60 17.6385C50.1576 17.6385 47.9492 23.1268 47.9492 23.1268Z" fill="#30303A"/>
<path d="M43.4736 82.1786L41.5609 49.6613C41.3922 46.7944 43.6717 44.3768 46.5436 44.3768C49.1864 44.3768 51.3712 46.4368 51.5264 49.0751L53.4391 81.5924C53.6078 84.4593 51.3283 86.8768 48.4564 86.8768C45.8136 86.8768 43.6288 84.8168 43.4736 82.1786Z" fill="#30303A"/>
<path d="M76.5264 82.1786L78.4391 49.6613C78.6078 46.7944 76.3283 44.3768 73.4564 44.3768C70.8136 44.3768 68.6288 46.4368 68.4736 49.0751L66.5609 81.5924C66.3922 84.4593 68.6717 86.8768 71.5436 86.8768C74.1864 86.8768 76.3712 84.8168 76.5264 82.1786Z" fill="#30303A"/>
</svg>
