<svg width="120" height="120" viewBox="0 0 120 120" fill="none" xmlns="http://www.w3.org/2000/svg">
<path d="M57.3751 70.6268L39.2501 52.5018C39.0001 52.2518 38.8126 51.981 38.6876 51.6893C38.5626 51.3977 38.5001 51.0852 38.5001 50.7518C38.5001 50.0852 38.7292 49.5018 39.1876 49.0018C39.6459 48.5018 40.2501 48.2518 41.0001 48.2518H79.0001C79.7501 48.2518 80.3542 48.5018 80.8126 49.0018C81.2709 49.5018 81.5001 50.0852 81.5001 50.7518C81.5001 50.9185 81.2501 51.5018 80.7501 52.5018L62.6251 70.6268C62.2084 71.0435 61.7917 71.3352 61.3751 71.5018C60.9584 71.6685 60.5001 71.7518 60.0001 71.7518C59.5001 71.7518 59.0417 71.6685 58.6251 71.5018C58.2084 71.3352 57.7917 71.0435 57.3751 70.6268Z" fill="#30303A"/>
</svg>
