<svg width="100" height="100" viewBox="0 0 100 100" fill="none" xmlns="http://www.w3.org/2000/svg">
<path d="M50 75.0018C51.4167 75.0018 52.6042 74.5227 53.5625 73.5643C54.5208 72.606 55 71.4185 55 70.0018C55 68.5852 54.5208 67.3977 53.5625 66.4393C52.6042 65.481 51.4167 65.0018 50 65.0018C48.5833 65.0018 47.3958 65.481 46.4375 66.4393C45.4792 67.3977 45 68.5852 45 70.0018C45 71.4185 45.4792 72.606 46.4375 73.5643C47.3958 74.5227 48.5833 75.0018 50 75.0018ZM45 55.0018H55V25.0018H45V55.0018ZM50 100.002C43.0833 100.002 36.5833 98.6893 30.5 96.0643C24.4167 93.4393 19.125 89.8768 14.625 85.3768C10.125 80.8768 6.5625 75.5852 3.9375 69.5018C1.3125 63.4185 0 56.9185 0 50.0018C0 43.0852 1.3125 36.5852 3.9375 30.5018C6.5625 24.4185 10.125 19.1268 14.625 14.6268C19.125 10.1268 24.4167 6.56433 30.5 3.93933C36.5833 1.31433 43.0833 0.00183105 50 0.00183105C56.9167 0.00183105 63.4167 1.31433 69.5 3.93933C75.5833 6.56433 80.875 10.1268 85.375 14.6268C89.875 19.1268 93.4375 24.4185 96.0625 30.5018C98.6875 36.5852 100 43.0852 100 50.0018C100 56.9185 98.6875 63.4185 96.0625 69.5018C93.4375 75.5852 89.875 80.8768 85.375 85.3768C80.875 89.8768 75.5833 93.4393 69.5 96.0643C63.4167 98.6893 56.9167 100.002 50 100.002Z" fill="#EE2128"/>
</svg>
