<svg width="120" height="120" viewBox="0 0 120 120" fill="none" xmlns="http://www.w3.org/2000/svg">
<path fill-rule="evenodd" clip-rule="evenodd" d="M20.2065 25.5116C18.7608 24.0456 18.767 21.6853 20.2252 20.2271C21.6897 18.7626 24.064 18.7626 25.5285 20.2271L36.3445 31.0431C42.8937 27.4447 50.7481 24.9991 60 24.9991C86.0752 24.9991 101.05 44.4251 106.991 54.3323C109.102 57.8529 109.102 62.1453 106.991 65.6659C103.899 70.8211 98.3619 78.5538 90.0871 84.7857L99.7747 94.4733C101.239 95.9377 101.239 98.3121 99.7747 99.7766C98.3165 101.235 95.9561 101.241 94.4902 99.7953C94.4839 99.7891 94.4777 99.7828 94.4714 99.7766L83.6519 88.9571L78.1107 83.4159L71.2394 76.5446L65.7801 71.0853L48.9138 54.219L43.4545 48.7597L35.2459 40.551L29.9097 35.2149L20.2252 25.5304C20.2189 25.5241 20.2127 25.5178 20.2065 25.5116ZM22.4454 41.8925C18.1723 46.3799 15.055 50.9205 13.009 54.3323C10.8976 57.8529 10.8976 62.1453 13.009 65.6659C18.9504 75.573 33.9249 94.9991 60 94.9991C64.9456 94.9991 69.4919 94.3003 73.6529 93.1001L67.4153 86.8625C65.0764 87.2732 62.6057 87.4991 60 87.4991C35.9708 87.4991 23.4169 68.292 19.9409 61.9816C19.2531 60.7331 19.2531 59.265 19.9409 58.0166C21.2399 55.6583 23.8068 51.4988 27.7666 47.2138L22.4454 41.8925ZM41.8855 36.5841L48.7573 43.4558C51.9611 41.2743 55.8316 39.9991 60 39.9991C71.0457 39.9991 80 48.9534 80 59.9991C80 64.1674 78.7248 68.038 76.5433 71.2418L84.7509 79.4495C93.1187 73.4105 98.0722 65.5889 100.059 61.9816C100.747 60.7331 100.747 59.265 100.059 58.0166C96.5831 51.7061 84.0293 32.4991 60 32.4991C53.0107 32.4991 46.9922 34.1241 41.8855 36.5841ZM54.2162 48.9148L71.0843 65.7829C71.9886 64.0534 72.5 62.086 72.5 59.9991C72.5 53.0955 66.9036 47.4991 60 47.4991C57.9131 47.4991 55.9457 48.0105 54.2162 48.9148Z" fill="#30303A"/>
</svg>
