<svg width="120" height="120" viewBox="0 0 120 120" fill="none" xmlns="http://www.w3.org/2000/svg">
<path fill-rule="evenodd" clip-rule="evenodd" d="M60 25.0018C33.9249 25.0018 18.9504 44.4279 13.009 54.335C10.8976 57.8556 10.8976 62.148 13.009 65.6686C18.9504 75.5758 33.9249 95.0018 60 95.0018C86.0751 95.0018 101.05 75.5758 106.991 65.6686C109.102 62.148 109.102 57.8556 106.991 54.335C101.05 44.4279 86.0752 25.0018 60 25.0018ZM60 32.5018C35.9708 32.5018 23.4169 51.7089 19.9409 58.0193C19.2531 59.2678 19.2531 60.7359 19.9409 61.9843C23.4169 68.2948 35.9708 87.5018 60 87.5018C84.0293 87.5018 96.5831 68.2948 100.059 61.9843C100.747 60.7359 100.747 59.2678 100.059 58.0193C96.5831 51.7089 84.0293 32.5018 60 32.5018ZM60 40.0018C71.0457 40.0018 80 48.9561 80 60.0018C80 71.0475 71.0457 80.0018 60 80.0018C48.9543 80.0018 40 71.0475 40 60.0018C40 48.9561 48.9543 40.0018 60 40.0018ZM60 47.5018C66.9036 47.5018 72.5 53.0983 72.5 60.0018C72.5 66.9054 66.9036 72.5018 60 72.5018C53.0965 72.5018 47.5 66.9054 47.5 60.0018C47.5 53.0983 53.0965 47.5018 60 47.5018Z" fill="#30303A"/>
</svg>
