<svg width="120" height="120" viewBox="0 0 120 120" fill="none" xmlns="http://www.w3.org/2000/svg">
<path d="M60 104.189C58.8333 104.189 57.6458 103.981 56.4375 103.564C55.2292 103.148 54.1667 102.481 53.25 101.564L44.625 93.6894C35.7917 85.606 27.8125 77.5852 20.6875 69.6269C13.5625 61.6685 10 52.8977 10 43.3144C10 35.481 12.625 28.9394 17.875 23.6894C23.125 18.4394 29.6667 15.8144 37.5 15.8144C41.9167 15.8144 46.0833 16.7519 50 18.6269C53.9167 20.5019 57.25 23.0644 60 26.3144C62.75 23.0644 66.0833 20.5019 70 18.6269C73.9167 16.7519 78.0833 15.8144 82.5 15.8144C90.3333 15.8144 96.875 18.4394 102.125 23.6894C107.375 28.9394 110 35.481 110 43.3144C110 52.8977 106.458 61.6894 99.375 69.6894C92.2917 77.6894 84.25 85.731 75.25 93.8144L66.75 101.564C65.8333 102.481 64.7708 103.148 63.5625 103.564C62.3542 103.981 61.1667 104.189 60 104.189ZM55.25 36.3144C52.8333 32.8977 50.25 30.2935 47.5 28.5019C44.75 26.7102 41.4167 25.8144 37.5 25.8144C32.5 25.8144 28.3333 27.481 25 30.8144C21.6667 34.1477 20 38.3144 20 43.3144C20 47.6477 21.5417 52.2519 24.625 57.1269C27.7083 62.0019 31.3958 66.731 35.6875 71.3144C39.9792 75.8977 44.3958 80.1894 48.9375 84.1894C53.4792 88.1894 57.1667 91.481 60 94.0644C62.8333 91.481 66.5208 88.1894 71.0625 84.1894C75.6042 80.1894 80.0208 75.8977 84.3125 71.3144C88.6042 66.731 92.2917 62.0019 95.375 57.1269C98.4583 52.2519 100 47.6477 100 43.3144C100 38.3144 98.3333 34.1477 95 30.8144C91.6667 27.481 87.5 25.8144 82.5 25.8144C78.5833 25.8144 75.25 26.7102 72.5 28.5019C69.75 30.2935 67.1667 32.8977 64.75 36.3144C64.1667 37.1477 63.4583 37.7727 62.625 38.1894C61.7917 38.606 60.9167 38.8144 60 38.8144C59.0833 38.8144 58.2083 38.606 57.375 38.1894C56.5417 37.7727 55.8333 37.1477 55.25 36.3144Z" fill="#30303A"/>
</svg>
