<svg width="120" height="120" viewBox="0 0 120 120" fill="none" xmlns="http://www.w3.org/2000/svg">
<path d="M56.4375 103.564C57.6458 103.981 58.8333 104.189 60 104.189C61.1667 104.189 62.3542 103.981 63.5625 103.564C64.7708 103.148 65.8333 102.481 66.75 101.564L75.25 93.8143C84.25 85.731 92.2917 77.6893 99.375 69.6893C106.458 61.6893 110 52.8976 110 43.3143C110 35.481 107.375 28.9393 102.125 23.6893C96.875 18.4393 90.3333 15.8143 82.5 15.8143C78.0833 15.8143 73.9167 16.7518 70 18.6268C66.0833 20.5018 62.75 23.0643 60 26.3143C57.25 23.0643 53.9167 20.5018 50 18.6268C46.0833 16.7518 41.9167 15.8143 37.5 15.8143C29.6667 15.8143 23.125 18.4393 17.875 23.6893C12.625 28.9393 10 35.481 10 43.3143C10 52.8976 13.5625 61.6685 20.6875 69.6268C27.8125 77.5851 35.7917 85.606 44.625 93.6893L53.25 101.564C54.1667 102.481 55.2292 103.148 56.4375 103.564Z" fill="#EE2128"/>
</svg>
