<svg width="120" height="120" viewBox="0 0 120 120" fill="none" xmlns="http://www.w3.org/2000/svg">
<path fill-rule="evenodd" clip-rule="evenodd" d="M35 35.0018V50.0018H30C24.4772 50.0018 20 54.479 20 60.0018V100.002C20 105.525 24.4772 110.002 30 110.002H90C95.5229 110.002 100 105.525 100 100.002V60.0018C100 54.479 95.5229 50.0018 90 50.0018H85V35.0018C85 21.1947 73.8071 10.0018 60 10.0018C46.1929 10.0018 35 21.1947 35 35.0018ZM75 50.0018V35.0018C75 26.7176 68.2843 20.0018 60 20.0018C51.7157 20.0018 45 26.7176 45 35.0018V50.0018H75ZM85 60.0018H87.5C88.8807 60.0018 90 61.1211 90 62.5018V97.5018C90 98.8825 88.8807 100.002 87.5 100.002H32.5C31.1193 100.002 30 98.8825 30 97.5018V62.5018C30 61.1211 31.1193 60.0018 32.5 60.0018H35H85ZM60 70.0018C65.5228 70.0018 70 74.479 70 80.0018C70 85.5247 65.5228 90.0018 60 90.0018C54.4772 90.0018 50 85.5247 50 80.0018C50 74.479 54.4772 70.0018 60 70.0018Z" fill="#AAAFB4"/>
</svg>
