<svg width="340" height="110" viewBox="0 0 340 110" fill="none" xmlns="http://www.w3.org/2000/svg">
<path fill-rule="evenodd" clip-rule="evenodd" d="M8.49891 89.2157L13.7038 37.7792L61.7986 37.1546L59.63 20.3717L4.44447 21.8532L0 89.6314L8.49891 89.2157Z" fill="#FEBE16"/>
<path fill-rule="evenodd" clip-rule="evenodd" d="M7.40746 100.002L8.49892 89.2157L68.1486 86.2981L61.7986 37.1546L70.7412 37.0385L79.2598 99.2611L7.40746 100.002ZM61.7986 37.1546L13.7038 37.7792L8.49892 89.2157L13.7038 37.7792L61.7986 37.1546Z" fill="#FB6976"/>
<path fill-rule="evenodd" clip-rule="evenodd" d="M8.49891 89.2157L68.1486 86.2981L61.7986 37.1546L13.7038 37.7792L8.49891 89.2157Z" fill="#FDA480"/>
<path d="M17.7779 51.1126L18.889 59.6312L32.6198 58.0158L37.3724 99.6929L48.0983 99.5824L42.9787 56.7971L56.6671 55.1867L55.5559 46.6682L17.7779 51.1126Z" fill="#FCFCF5"/>
<path fill-rule="evenodd" clip-rule="evenodd" d="M14.227 29.3188C12.6601 17.9786 14.4915 0.00182748 30.6105 0.00183105C50.0054 0.00183105 50.2088 17.7377 50.3205 27.4798C50.325 27.8649 50.3292 28.2375 50.3345 28.596C51.0375 29.2071 51.4818 30.1079 51.4818 31.1125C51.4818 32.9534 49.9894 34.4458 48.1485 34.4458C46.3075 34.4458 44.8151 32.9534 44.8151 31.1125C44.8151 30.3045 45.1026 29.5637 45.5808 28.9868C45.6701 16.7171 43.6155 4.73377 30.6105 4.73377C18.3418 4.73377 18.054 21.3168 18.8418 28.3094C19.7616 28.9028 20.3705 29.9365 20.3705 31.1125C20.3705 32.9534 18.8781 34.4458 17.0372 34.4458C15.1962 34.4458 13.7038 32.9534 13.7038 31.1125C13.7038 30.4522 13.8958 29.8367 14.227 29.3188Z" fill="#30303A"/>
<path d="M119.885 88.5018V40.9628H99.8067V33.8534H147.736V40.9628H127.658V88.5018H119.885ZM144.104 70.4159C144.104 73.7753 145.236 76.6399 147.502 79.0096C149.768 81.3794 152.502 82.5643 155.705 82.5643C158.882 82.5643 161.604 81.3794 163.869 79.0096C166.161 76.6138 167.307 73.7492 167.307 70.4159C167.307 67.1086 166.174 64.2701 163.908 61.9003C161.643 59.5305 158.908 58.3456 155.705 58.3456C152.502 58.3456 149.768 59.5305 147.502 61.9003C145.236 64.2701 144.104 67.1086 144.104 70.4159ZM136.564 70.4159C136.564 65.1815 138.426 60.7414 142.15 57.0956C145.874 53.4497 150.419 51.6268 155.783 51.6268C158.309 51.6268 160.718 52.1086 163.01 53.0721C165.328 54.0096 167.398 55.3638 169.221 57.1346C171.07 59.0096 172.476 61.0669 173.439 63.3065C174.403 65.5461 174.885 67.9159 174.885 70.4159C174.885 72.8899 174.39 75.2987 173.4 77.6425C172.411 79.9862 171.018 82.0305 169.221 83.7753C167.398 85.5721 165.341 86.9263 163.049 87.8378C160.783 88.7492 158.361 89.205 155.783 89.205C150.419 89.205 145.874 87.382 142.15 83.7362C138.426 80.0904 136.564 75.6503 136.564 70.4159ZM213.791 52.4081L198.674 68.8925L216.838 88.5018H206.994L189.377 69.2831L204.924 52.4081H213.791ZM181.955 88.5018V33.8534H189.143V88.5018H181.955ZM225.588 70.4159C225.588 73.7753 226.721 76.6399 228.986 79.0096C231.252 81.3794 233.986 82.5643 237.189 82.5643C240.367 82.5643 243.088 81.3794 245.354 79.0096C247.645 76.6138 248.791 73.7492 248.791 70.4159C248.791 67.1086 247.658 64.2701 245.393 61.9003C243.127 59.5305 240.393 58.3456 237.189 58.3456C233.986 58.3456 231.252 59.5305 228.986 61.9003C226.721 64.2701 225.588 67.1086 225.588 70.4159ZM218.049 70.4159C218.049 65.1815 219.911 60.7414 223.635 57.0956C227.359 53.4497 231.903 51.6268 237.268 51.6268C239.794 51.6268 242.203 52.1086 244.494 53.0721C246.812 54.0096 248.882 55.3638 250.705 57.1346C252.554 59.0096 253.96 61.0669 254.924 63.3065C255.887 65.5461 256.369 67.9159 256.369 70.4159C256.369 72.8899 255.874 75.2987 254.885 77.6425C253.895 79.9862 252.502 82.0305 250.705 83.7753C248.882 85.5721 246.825 86.9263 244.533 87.8378C242.268 88.7492 239.846 89.205 237.268 89.205C231.903 89.205 227.359 87.382 223.635 83.7362C219.911 80.0904 218.049 75.6503 218.049 70.4159ZM295.275 52.4081L280.158 68.8925L298.322 88.5018H288.479L270.861 69.2831L286.408 52.4081H295.275ZM263.439 88.5018V33.8534H270.627V88.5018H263.439ZM325.471 84.0878C323.674 85.8065 321.877 87.0695 320.08 87.8768C318.309 88.6581 316.395 89.0487 314.338 89.0487C310.406 89.0487 307.307 87.9159 305.041 85.6503C302.775 83.3846 301.643 80.2857 301.643 76.3534V52.4081H308.908V74.5175C308.908 77.4341 309.52 79.5956 310.744 81.0018C311.994 82.382 313.921 83.0721 316.525 83.0721C318.374 83.0721 319.989 82.7206 321.369 82.0175C322.775 81.2883 324.143 80.0904 325.471 78.4237V52.4081H332.658V88.5018H325.471V84.0878Z" fill="#FDA480"/>
</svg>
