<svg width="540" height="890" viewBox="0 0 540 890" fill="none" xmlns="http://www.w3.org/2000/svg">
<path fill-rule="evenodd" clip-rule="evenodd" d="M419.638 250.781L405 137.497L32.5 147.497L2.5 604.997L59.8672 602.191L95 254.997L419.638 250.781Z" fill="#FEBE16"/>
<path fill-rule="evenodd" clip-rule="evenodd" d="M419.638 250.781L462.5 582.497L59.8672 602.191L52.5 674.997L537.5 669.997L480 249.997L419.638 250.781Z" fill="#FB6976"/>
<path fill-rule="evenodd" clip-rule="evenodd" d="M59.8672 602.191L462.5 582.497L419.638 250.781L95 254.997L59.8672 602.191Z" fill="#FDA480"/>
<path d="M122.5 344.997L130 402.497L222.682 391.593L254.762 672.912L327.161 672.166L292.604 383.367L385 372.497L377.5 314.997L122.5 344.997Z" fill="#FCFCF5"/>
<path fill-rule="evenodd" clip-rule="evenodd" d="M98.5318 197.89C87.955 121.344 100.317 0.00181524 209.12 0.00183105C340.034 0.00185009 341.407 119.718 342.161 185.477C342.191 188.076 342.22 190.591 342.256 193.011C347 197.136 350 203.216 350 209.997C350 222.424 339.926 232.497 327.5 232.497C315.074 232.497 305 222.424 305 209.997C305 204.544 306.94 199.543 310.168 195.649C310.771 112.829 296.902 31.9422 209.12 31.9422C126.306 31.9422 124.364 143.877 129.681 191.077C135.89 195.082 140 202.06 140 209.997C140 222.424 129.926 232.497 117.5 232.497C105.074 232.497 95 222.424 95 209.997C95 205.54 96.296 201.386 98.5318 197.89Z" fill="#30303A"/>
<path d="M46.4062 846.997V740.034H1.23047V724.038H109.072V740.034H63.8965V846.997H46.4062ZM100.898 806.304C100.898 813.862 103.447 820.308 108.545 825.64C113.643 830.972 119.795 833.638 127.002 833.638C134.15 833.638 140.273 830.972 145.371 825.64C150.527 820.249 153.105 813.804 153.105 806.304C153.105 798.862 150.557 792.476 145.459 787.144C140.361 781.812 134.209 779.146 127.002 779.146C119.795 779.146 113.643 781.812 108.545 787.144C103.447 792.476 100.898 798.862 100.898 806.304ZM83.9355 806.304C83.9355 794.527 88.125 784.536 96.5039 776.333C104.883 768.13 115.107 764.029 127.178 764.029C132.861 764.029 138.281 765.112 143.438 767.28C148.652 769.39 153.311 772.437 157.412 776.421C161.572 780.64 164.736 785.269 166.904 790.308C169.072 795.347 170.156 800.679 170.156 806.304C170.156 811.87 169.043 817.29 166.816 822.564C164.59 827.837 161.455 832.437 157.412 836.362C153.311 840.405 148.682 843.452 143.525 845.503C138.428 847.554 132.979 848.579 127.178 848.579C115.107 848.579 104.883 844.478 96.5039 836.275C88.125 828.071 83.9355 818.081 83.9355 806.304ZM257.695 765.786L223.682 802.876L264.551 846.997H242.402L202.764 803.755L237.744 765.786H257.695ZM186.064 846.997V724.038H202.236V846.997H186.064ZM284.238 806.304C284.238 813.862 286.787 820.308 291.885 825.64C296.982 830.972 303.135 833.638 310.342 833.638C317.49 833.638 323.613 830.972 328.711 825.64C333.867 820.249 336.445 813.804 336.445 806.304C336.445 798.862 333.896 792.476 328.799 787.144C323.701 781.812 317.549 779.146 310.342 779.146C303.135 779.146 296.982 781.812 291.885 787.144C286.787 792.476 284.238 798.862 284.238 806.304ZM267.275 806.304C267.275 794.527 271.465 784.536 279.844 776.333C288.223 768.13 298.447 764.029 310.518 764.029C316.201 764.029 321.621 765.112 326.777 767.28C331.992 769.39 336.65 772.437 340.752 776.421C344.912 780.64 348.076 785.269 350.244 790.308C352.412 795.347 353.496 800.679 353.496 806.304C353.496 811.87 352.383 817.29 350.156 822.564C347.93 827.837 344.795 832.437 340.752 836.362C336.65 840.405 332.021 843.452 326.865 845.503C321.768 847.554 316.318 848.579 310.518 848.579C298.447 848.579 288.223 844.478 279.844 836.275C271.465 828.071 267.275 818.081 267.275 806.304ZM441.035 765.786L407.021 802.876L447.891 846.997H425.742L386.104 803.755L421.084 765.786H441.035ZM369.404 846.997V724.038H385.576V846.997H369.404ZM508.975 837.066C504.932 840.933 500.889 843.775 496.846 845.591C492.861 847.349 488.555 848.228 483.926 848.228C475.078 848.228 468.105 845.679 463.008 840.581C457.91 835.484 455.361 828.511 455.361 819.663V765.786H471.709V815.532C471.709 822.095 473.086 826.958 475.84 830.122C478.652 833.228 482.988 834.78 488.848 834.78C493.008 834.78 496.641 833.989 499.746 832.407C502.91 830.767 505.986 828.071 508.975 824.321V765.786H525.146V846.997H508.975V837.066Z" fill="#FDA480"/>
</svg>
