<svg width="120" height="120" viewBox="0 0 120 120" fill="none" xmlns="http://www.w3.org/2000/svg">
<path fill-rule="evenodd" clip-rule="evenodd" d="M83.3598 57.2589C95.8359 62.1608 99.6353 68.5059 102.407 74.0758C109.64 88.6103 99.7075 95.5597 97.7934 96.673C97.7502 96.6981 97.702 96.7263 97.6488 96.7575C95.3458 98.1061 83.6552 104.952 60.0016 104.952C35.9095 104.952 24.2061 97.8662 22.2267 96.6678L22.2004 96.6519C20.3004 95.5519 10.3504 88.6019 17.6004 74.0519C20.3504 68.5019 24.1504 62.1519 36.6504 57.2519C36.6504 57.2519 33.6504 51.0519 33.6504 42.5519C33.6504 25.1519 47.5004 15.0519 60.002 15.0519C72.5004 15.0519 86.3647 25.1756 86.3647 42.5646C86.3647 51.06 83.3598 57.2589 83.3598 57.2589ZM76.2224 65.2198C81.7213 67.2444 88.0184 69.5628 91.0605 74.4959C95.8608 81.4102 95.7608 85.2414 93.4892 87.4185C91.2176 89.5956 78.5455 95.0018 60.0298 95.0018C41.5125 95.0018 28.8 89.606 26.5141 87.4185C24.2283 85.231 24.1526 81.4136 28.9472 74.4959C31.9795 69.5567 38.2829 67.2399 43.7874 65.2167C46.7083 64.1431 49.4043 63.1522 51.2672 61.8959C46.7205 57.2018 43.2485 49.634 43.6619 41.481C44.0752 32.5046 51.0196 25.0842 60.0302 25.0018C69.0409 25.0842 75.9168 32.4977 76.3454 41.4724C76.7588 49.6477 73.0024 57.2019 68.745 61.8959C70.608 63.1526 73.3027 64.1448 76.2224 65.2198Z" fill="#30303A"/>
</svg>
