<svg width="120" height="120" viewBox="0 0 120 120" fill="none" xmlns="http://www.w3.org/2000/svg">
<path d="M60 87.619L39.25 100.119C38.3333 100.702 37.375 100.952 36.375 100.869C35.375 100.786 34.5 100.452 33.75 99.869C33 99.2857 32.4167 98.5565 32 97.6815C31.5833 96.8065 31.5 95.8274 31.75 94.744L37.25 71.119L18.875 55.244C18.0417 54.494 17.5208 53.6399 17.3125 52.6815C17.1042 51.7232 17.1667 50.7857 17.5 49.869C17.8333 48.9524 18.3333 48.2024 19 47.619C19.6667 47.0357 20.5833 46.6607 21.75 46.494L46 44.369L55.375 22.119C55.7917 21.119 56.4375 20.369 57.3125 19.869C58.1875 19.369 59.0833 19.119 60 19.119C60.9167 19.119 61.8125 19.369 62.6875 19.869C63.5625 20.369 64.2083 21.119 64.625 22.119L74 44.369L98.25 46.494C99.4167 46.6607 100.333 47.0357 101 47.619C101.667 48.2024 102.167 48.9524 102.5 49.869C102.833 50.7857 102.896 51.7232 102.688 52.6815C102.479 53.6399 101.958 54.494 101.125 55.244L82.75 71.119L88.25 94.744C88.5 95.8274 88.4167 96.8065 88 97.6815C87.5833 98.5565 87 99.2857 86.25 99.869C85.5 100.452 84.625 100.786 83.625 100.869C82.625 100.952 81.6667 100.702 80.75 100.119L60 87.619Z" fill="#FEBE16"/>
</svg>
