<svg width="120" height="120" viewBox="0 0 120 120" fill="none" xmlns="http://www.w3.org/2000/svg">
<path d="M82.7036 75.4769C81.4819 74.2552 82.7036 75.4769 75.7805 71.4045C80.6674 65.3978 83.7217 57.762 83.7217 49.4136C83.7217 30.3751 68.3484 15.0018 49.4118 15.0018C30.4751 15.0018 15 30.3751 15 49.4136C15 68.3502 30.3733 83.7235 49.4118 83.7235C57.7602 83.7235 65.4977 80.6692 71.4027 75.6806C75.4751 82.6036 74.2534 81.4837 75.4751 82.6036L96.3462 103.475C97.3643 104.493 98.6878 105.002 99.9095 105.002C101.131 105.002 102.557 104.493 103.473 103.475C105.509 101.438 105.509 98.2824 103.473 96.2462L82.7036 75.4769ZM25.181 49.4136C25.181 36.0765 36.0747 25.2846 49.31 25.2846C62.5453 25.2846 73.5407 36.0765 73.5407 49.4136C73.5407 62.7507 62.6471 73.5426 49.4118 73.5426C36.1765 73.5426 25.181 62.6489 25.181 49.4136Z" fill="#30303A"/>
</svg>
