<svg width="120" height="120" viewBox="0 0 120 120" fill="none" xmlns="http://www.w3.org/2000/svg">
<path fill-rule="evenodd" clip-rule="evenodd" d="M24.3288 95.0385C28.3028 99.889 39.095 110.002 60 110.002C80.905 110.002 91.6972 99.889 95.6712 95.0385C104.534 86.0166 110 73.6476 110 60.0018C110 32.3876 87.6142 10.0018 60 10.0018C32.3858 10.0018 10 32.3876 10 60.0018C10 73.6476 15.4664 86.0166 24.3288 95.0385ZM29.1782 85.499C23.4455 78.5769 20 69.6917 20 60.0018C20 37.9104 37.9086 20.0018 60 20.0018C82.0914 20.0018 100 37.9104 100 60.0018C100 69.6917 96.5545 78.5769 90.8218 85.499C84.3465 79.7328 73.529 72.5018 60 72.5018C46.471 72.5018 35.6535 79.7328 29.1782 85.499ZM36.4542 92.3409C43.9 86.1518 51.7 82.5018 60 82.5018C68.3027 82.5018 76.1049 86.127 83.5409 92.3373V92.3445C83.1539 92.6267 82.7617 92.9021 82.3644 93.1705C75.9803 97.4834 68.2843 100.002 60 100.002C51.198 100.002 43.06 97.1588 36.4542 92.3409ZM80 47.5018C80 36.4561 71.0457 27.5018 60 27.5018C48.9543 27.5018 40 36.4561 40 47.5018C40 58.5475 48.9543 67.5018 60 67.5018C71.0457 67.5018 80 58.5475 80 47.5018ZM70 47.5018C70 41.979 65.5228 37.5018 60 37.5018C54.4772 37.5018 50 41.979 50 47.5018C50 53.0247 54.4772 57.5018 60 57.5018C65.5228 57.5018 70 53.0247 70 47.5018Z" fill="#AAAFB4"/>
</svg>
